<svg width="34" height="36" viewBox="0 0 34 36" fill="none" xmlns="http://www.w3.org/2000/svg">
<rect width="34" height="36" rx="4" fill="#FEEADC"/>
<path d="M25 28H9C8.73478 28 8.48043 27.8946 8.29289 27.7071C8.10536 27.5196 8 27.2652 8 27V9C8 8.73478 8.10536 8.48043 8.29289 8.29289C8.48043 8.10536 8.73478 8 9 8H25C25.2652 8 25.5196 8.10536 25.7071 8.29289C25.8946 8.48043 26 8.73478 26 9V27C26 27.2652 25.8946 27.5196 25.7071 27.7071C25.5196 27.8946 25.2652 28 25 28ZM24 26V10H10V26H24ZM13 13H21V15H13V13ZM13 17H21V19H13V17ZM13 21H18V23H13V21Z" fill="#F97316"/>
</svg>
