<svg width="18" height="19" viewBox="0 0 18 19" fill="none" xmlns="http://www.w3.org/2000/svg">
<path d="M2.25 2.75H15.75C15.9489 2.75 16.1397 2.82902 16.2803 2.96967C16.421 3.11032 16.5 3.30109 16.5 3.5V15.5C16.5 15.6989 16.421 15.8897 16.2803 16.0303C16.1397 16.171 15.9489 16.25 15.75 16.25H2.25C2.05109 16.25 1.86032 16.171 1.71967 16.0303C1.57902 15.8897 1.5 15.6989 1.5 15.5V3.5C1.5 3.30109 1.57902 3.11032 1.71967 2.96967C1.86032 2.82902 2.05109 2.75 2.25 2.75ZM15 5.9285L9.054 11.2535L3 5.912V14.75H15V5.9285ZM3.38325 4.25L9.04575 9.2465L14.6265 4.25H3.38325Z" fill="#828282"/>
</svg>
